<svg width="229" height="226" viewBox="0 0 229 226" fill="none" xmlns="http://www.w3.org/2000/svg">
<path d="M46.68 134L65.82 88.7H66.18L85.32 134H78.06L64.14 98.54L68.64 95.6L52.92 134H46.68ZM58.26 117.68H73.86L76.02 123.08H56.4L58.26 117.68ZM93.1917 134V89.06H93.2517L116.292 121.76L113.592 121.22L136.572 89.06H136.692V134H130.452V103.28L130.812 106.46L114.732 129.32H114.612L98.1717 106.46L99.2517 103.52V134H93.1917ZM148.973 90.5H155.213V127.94H177.053V134H148.973V90.5Z" fill="white"/>
<path d="M227.014 168.032L203.697 173.585L203.216 170.887L227.014 168.032Z" fill="white"/>
<path d="M215.774 150.391L205.804 172.189L203.381 170.908L215.774 150.391Z" fill="white"/>
<path d="M193.66 150.773L205.857 171.407L203.422 172.665L193.66 150.773Z" fill="white"/>
<path d="M216.271 164.332L204.028 173.107L203.308 172.004L216.271 164.332Z" fill="white"/>
<path d="M203.929 157.923L206.061 172.834L204.751 172.963L203.929 157.923Z" fill="white"/>
<path fill-rule="evenodd" clip-rule="evenodd" d="M202.813 171C183.77 200.427 150.659 219.9 113 219.9C53.9608 219.9 6.1 172.039 6.1 113C6.1 53.9608 53.9608 6.1 113 6.1C172.039 6.1 219.9 53.9608 219.9 113C219.9 118.074 219.547 123.065 218.863 127.95H175V134H224.052C225.331 127.196 226 120.176 226 113C226 50.5918 175.408 0 113 0C50.5918 0 0 50.5918 0 113C0 175.408 50.5918 226 113 226C154.204 226 190.257 203.947 209.999 171H202.813Z" fill="white"/>
</svg>
